<?xml version="1.0" encoding="UTF-8" standalone="no"?>
<!-- Created with Inkscape (http://www.inkscape.org/) -->

<svg
   width="300"
   height="300"
   viewBox="0 0 79.374998 79.375002"
   version="1.1"
   id="svg5"
   inkscape:version="1.1 (c68e22c387, 2021-05-23)"
   sodipodi:docname="Delete Mark Values from MEP Content.svg"
   inkscape:export-filename="\\Prlx2\Proj\20043- Autodesk Generative Design Documentation + Testing\Deliverables\Scope 5\5.02-DynamoPlayerSamples\Thumbnails\Update Sheet Names to Upper Case.png"
   inkscape:export-xdpi="320"
   inkscape:export-ydpi="320"
   xmlns:inkscape="http://www.inkscape.org/namespaces/inkscape"
   xmlns:sodipodi="http://sodipodi.sourceforge.net/DTD/sodipodi-0.dtd"
   xmlns="http://www.w3.org/2000/svg"
   xmlns:svg="http://www.w3.org/2000/svg">
  <sodipodi:namedview
     id="namedview7"
     pagecolor="#505050"
     bordercolor="#eeeeee"
     borderopacity="1"
     inkscape:pageshadow="0"
     inkscape:pageopacity="0"
     inkscape:pagecheckerboard="0"
     inkscape:document-units="mm"
     showgrid="false"
     units="px"
     inkscape:zoom="2.1215981"
     inkscape:cx="170.39042"
     inkscape:cy="151.30104"
     inkscape:window-width="1918"
     inkscape:window-height="1018"
     inkscape:window-x="874"
     inkscape:window-y="512"
     inkscape:window-maximized="0"
     inkscape:current-layer="layer1"
     showguides="true"
     inkscape:guide-bbox="true">
    <sodipodi:guide
       position="73.186163,5.7907869"
       orientation="1,0"
       id="guide8679" />
    <sodipodi:guide
       position="73.186163,5.7907869"
       orientation="0,-1"
       id="guide8783" />
    <sodipodi:guide
       position="6.1888359,73.584214"
       orientation="0,-1"
       id="guide8785" />
    <sodipodi:guide
       position="6.1888359,73.584214"
       orientation="1,0"
       id="guide8787" />
  </sodipodi:namedview>
  <defs
     id="defs2">
    <rect
       x="26.663175"
       y="86.65532"
       width="229.44249"
       height="52.66614"
       id="rect1442" />
    <rect
       x="26.663176"
       y="86.655319"
       width="172.87036"
       height="149.70045"
       id="rect1442-7" />
    <rect
       x="26.663176"
       y="86.655319"
       width="172.87036"
       height="149.70045"
       id="rect1442-5" />
    <rect
       x="26.663176"
       y="86.655319"
       width="274.88899"
       height="51.515598"
       id="rect1442-77" />
  </defs>
  <g
     inkscape:label="Layer 1"
     inkscape:groupmode="layer"
     id="layer1">
    <rect
       style="fill:#ffffff;fill-rule:evenodd;stroke-width:5.14361;stroke-linecap:round"
       id="rect11749"
       width="79.375"
       height="79.375"
       x="-1.0658141e-14"
       y="-6.4392935e-15"
       sodipodi:insensitive="true" />
    <rect
       style="fill:#5f835d;fill-opacity:1;fill-rule:evenodd;stroke-width:0.665001;stroke-linecap:round"
       id="rect2339"
       width="21.450026"
       height="9.7273369"
       x="90.508957"
       y="34.289539" />
    <path
       d="m 61.503411,43.191884 5.216381,-5.205016 -1.613781,-1.613787 -21.592877,21.592877 1.613787,1.613781 5.205015,-5.216381 3.50032,3.500316 a 2.272934,2.272934 0 0 0 1.613781,0.670515 2.272934,2.272934 0 0 0 1.602421,-0.670515 l 7.955268,-7.955269 a 2.272934,2.272934 0 0 0 0.670516,-1.60242 2.272934,2.272934 0 0 0 -0.670516,-1.613782 M 47.04755,51.067601 58.253112,39.952955 54.775523,36.464 a 2.272934,2.272934 0 0 0 -1.602416,-0.659149 h -7.955273 a 2.272934,2.272934 0 0 0 -2.27293,2.27293 v 7.955273 a 2.272934,2.272934 0 0 0 0.670515,1.602416 m 3.307117,-9.557689 a 1.7047006,1.7047006 0 1 1 -1.704702,1.704702 1.7047006,1.7047006 0 0 1 1.704702,-1.704702 z"
       id="path1108"
       style="fill:#000000;fill-opacity:1;stroke-width:1.13647" />
    <g
       id="g6914"
       transform="matrix(1.2153525,0,0,1.2153525,-9.4894583,-7.1217011)">
      <path
         style="fill:#5f835d;fill-opacity:1;fill-rule:evenodd;stroke:none;stroke-width:0.313444;stroke-linecap:round;stroke-opacity:1"
         d="m 17.878596,32.934837 c -1.201026,-0.441891 -1.268412,-1.544576 -0.138171,-2.26097 0.198366,-0.125733 0.459579,-0.449535 0.580471,-0.719556 l 0.219805,-0.49095 -0.356427,-0.299916 c -0.343207,-0.288787 -0.370965,-0.292396 -0.74837,-0.09723 -1.003722,0.519046 -2.45304,0.431953 -3.04201,-0.182798 -0.593038,-0.618998 -0.588656,-1.912567 0.0089,-2.622705 0.252837,-0.300479 0.416449,-0.377799 0.799442,-0.377799 0.419964,0 0.542143,0.0731 0.955412,0.57164 0.470395,0.567451 0.98295,0.924874 1.326298,0.924874 0.0984,0 0.271061,-0.140634 0.383684,-0.312519 0.192015,-0.293051 0.188112,-0.367363 -0.06264,-1.192919 -0.543977,-1.790924 0.105438,-2.984103 1.624166,-2.984103 1.019982,0 1.754257,0.541345 1.754257,1.293327 0,0.281173 -0.156265,0.510802 -0.681262,1.001105 -0.374694,0.349932 -0.73987,0.795277 -0.811503,0.989656 -0.112093,0.304168 -0.09102,0.386136 0.151246,0.588221 0.348048,0.290327 0.373893,0.290192 1.216809,-0.0063 2.121411,-0.746239 3.543817,0.393854 2.988036,2.394983 -0.156095,0.56203 -0.644599,0.972171 -1.157919,0.972171 -0.301024,0 -0.513499,-0.142621 -1.012035,-0.679317 -0.34706,-0.373624 -0.795344,-0.74081 -0.996187,-0.815973 -0.328526,-0.122941 -0.392223,-0.102724 -0.634772,0.201459 l -0.269602,0.338114 0.245547,0.633746 c 0.475473,1.227175 0.26984,2.528282 -0.476912,3.017573 -0.431156,0.282503 -1.271959,0.334857 -1.866247,0.116202 z m 1.659683,-4.892402 c 0.04609,-0.475758 -0.317869,-0.755849 -0.70969,-0.546153 -0.585003,0.313084 -0.380533,1.045062 0.27421,0.981636 0.345245,-0.03345 0.402036,-0.09024 0.43548,-0.435483 z"
         id="path2299" />
      <path
         style="fill:#5f835d;fill-opacity:1;fill-rule:evenodd;stroke:none;stroke-width:0.313444;stroke-linecap:round;stroke-opacity:1"
         d="m 28.357871,31.811625 v -0.720199 l -0.942716,-0.932201 -0.942714,-0.932198 0.03857,-1.518026 c 0.03577,-1.407799 0.06052,-1.541363 0.340908,-1.839463 0.166283,-0.176792 0.404789,-0.32144 0.530013,-0.32144 0.202579,0 0.227682,-0.116877 0.227682,-1.060031 v -1.06003 h 0.436483 0.436483 v 1.06003 1.060031 h 1.06003 1.060029 v -1.060031 -1.06003 h 0.498837 0.498841 v 1.046511 c 0,1.010226 0.01072,1.049204 0.309504,1.124191 0.52768,0.13244 0.688171,0.650693 0.688171,2.222234 v 1.412295 l -0.935321,0.929079 -0.935321,0.929079 v 0.720199 0.720201 h -1.18474 -1.184741 z"
         id="path2338" />
      <path
         style="fill:#5f835d;fill-opacity:1;fill-rule:evenodd;stroke:none;stroke-width:0.110819;stroke-linecap:round;stroke-opacity:1"
         d="m 38.807117,32.068403 c -0.01834,-0.299543 -0.05273,-0.507304 -0.09458,-0.571172 -0.03617,-0.05521 -0.256101,-0.215373 -0.488725,-0.355923 -1.049578,-0.634145 -1.610818,-1.201036 -1.967188,-1.986989 -0.128807,-0.28408 -0.30005,-0.872669 -0.30005,-1.031324 0,-0.07774 0.0957,-0.08113 2.288172,-0.08113 h 2.288172 l 0.02561,-0.628305 c 0.01407,-0.345566 0.03748,-1.151925 0.052,-1.791909 0.02826,-1.246381 0.05956,-1.553952 0.183459,-1.802888 0.118237,-0.23757 0.254336,-0.311965 0.673052,-0.367908 0.433565,-0.05793 1.835576,-0.02693 2.076543,0.04591 0.215088,0.06502 0.348864,0.22061 0.428096,0.497905 0.08856,0.309966 0.126357,2.893192 0.05783,3.952972 -0.09382,1.451039 -0.220527,1.773542 -1.10236,2.805846 -0.61804,0.7235 -0.661498,0.804566 -0.720031,1.343133 l -0.0481,0.442571 h -1.661546 -1.661546 z"
         id="path6596" />
    </g>
  </g>
</svg>
